<svg width="847" height="393" viewBox="0 0 847 393" fill="none" xmlns="http://www.w3.org/2000/svg">
<path d="M846.467 392.082C832.781 390.674 820.981 389.568 809.155 388.285C790.436 386.422 771.71 384.595 752.973 382.799C746.331 382.172 739.665 381.693 732.997 381.316C715.706 380.342 698.419 379.403 681.143 378.497C652.31 377.063 623.454 375.756 594.62 374.247C586.343 373.818 578.065 372.938 568.908 372.183C572.43 369.138 575.777 366.346 578.97 363.379C581.336 361.312 583.499 359.03 585.437 356.56C586.05 355.875 586.486 355.048 586.703 354.152C586.919 353.257 586.909 352.323 586.674 351.433C586.439 350.543 585.988 349.723 585.359 349.051C584.73 348.377 583.945 347.872 583.071 347.578C578.166 345.314 572.883 342.548 567.726 342.548C546.263 341.97 524.776 342.144 503.292 342.321C494.537 342.321 485.68 342.823 477.023 343.755C457.676 345.816 438.23 347.401 419.156 350.748C385.52 356.635 352.083 363.654 318.52 370.247C316.263 370.903 313.881 371.007 311.575 370.549C314.092 368.209 316.607 365.817 319.122 363.504C322.362 360.937 325.438 358.173 328.332 355.227C333.364 349.364 331.955 343.755 324.81 340.812C321.989 339.375 318.908 338.519 315.752 338.295C296.605 338.925 277.435 339.503 258.312 340.963C241.884 342.22 225.454 344.08 209.177 346.699C189.603 349.817 170.154 353.642 150.757 357.793C119.407 364.5 88.1002 371.488 56.8353 378.749C38.9218 382.901 21.1842 387.806 3.34612 392.335C2.76748 392.486 2.06309 392.158 0 391.78C84.7371 347.93 120.489 274.22 131.634 184.606H160.819C164.845 196.757 168.87 208.959 172.997 221.135C173.248 221.89 174.281 222.418 176.368 224.355C179.613 214.166 182.935 204.858 185.525 195.374C188.118 185.889 187.816 185.637 198.105 185.637C217.679 185.637 237.23 185.637 256.804 185.637C324.257 186.065 391.682 186.744 459.137 186.92C486.812 186.92 514.487 186.191 542.013 185.537C548.629 185.386 555.245 184.354 560.906 183.801C567.825 207.827 573.713 231.148 581.31 253.891C588.91 276.635 599.097 298.671 617.818 315.075C627.805 324.244 640.521 329.891 654.022 331.151C678.023 333.366 697.548 324.257 715.21 309.414C724.821 301.312 734.254 293.01 743.138 285.364C762.156 332.083 800.376 364.787 846.467 392.082Z" fill="white"/>
<path d="M394.022 0C393.091 19.3716 392.136 38.5923 391.155 58.6178L426.377 56.9324L427.335 58.945L359.655 156.381V88.4551H328.607C329.387 80.9581 387.455 1.25789 394.022 0Z" fill="white"/>
<path d="M290.871 104.583L314.293 101.463L276.955 167.503L275.322 167.352C274.566 153.54 273.812 139.678 273.032 125.539L252.904 128.382C254.791 118.319 283.749 70.0407 288.656 68.5312C289.285 80.5065 290.039 92.3308 290.871 104.583Z" fill="white"/>
<path d="M427.711 118.542C447.69 94.5163 448.091 94.919 472.369 67.1445C470.71 79.7236 469.124 91.8245 467.54 103.799C473.275 104.63 478.031 105.158 482.635 106.089C486.233 106.818 487.138 109.083 484.748 112.076C474.835 124.404 464.848 136.681 454.908 148.983C451.739 152.883 448.671 156.883 445.399 160.707C444.222 161.866 442.934 162.902 441.548 163.801L439.84 162.946L447.058 120.756L427.711 118.542Z" fill="white"/>
</svg>
