<svg width="244" height="227" viewBox="0 0 244 227" fill="none" xmlns="http://www.w3.org/2000/svg">
<path d="M153.513 0C152.325 24.7147 151.107 49.2369 149.855 74.7859L194.793 72.6356L196.014 75.2033L109.668 199.515V112.853H70.0562C71.0514 103.288 145.136 1.60485 153.513 0Z" fill="black"/>
<path d="M48.4387 146.214L78.3215 142.234L30.6849 226.488L28.6012 226.296C27.636 208.674 26.6741 190.989 25.6789 172.951L0 176.578C2.40646 163.739 39.3521 102.145 45.6129 100.219C46.4151 115.497 47.377 130.583 48.4387 146.214Z" fill="black"/>
<path d="M169.489 165.793C194.978 135.14 195.491 135.654 226.466 100.219C224.349 116.267 222.325 131.706 220.305 146.984C227.62 148.043 233.688 148.717 239.563 149.905C244.153 150.836 245.308 153.724 242.259 157.544C229.611 173.271 216.87 188.935 204.188 204.63C200.144 209.605 196.23 214.709 192.056 219.587C190.555 221.066 188.911 222.389 187.143 223.535L184.963 222.444L194.173 168.617L169.489 165.793Z" fill="black"/>
</svg>
