<svg width="706" height="475" viewBox="0 0 706 475" fill="none" xmlns="http://www.w3.org/2000/svg">
<path d="M643.567 367.963V471.987C630.901 471.987 618.438 471.987 605.975 471.88C604.968 471.88 603.632 470.576 603.011 469.535C595.406 456.882 587.926 444.149 580.397 431.45C580.017 430.969 579.602 430.518 579.156 430.099V471.787H538.91V367.637H562.89C566.925 367.637 570.945 367.777 574.965 367.637C576.082 367.541 577.201 367.799 578.163 368.377C579.124 368.954 579.879 369.82 580.32 370.851C587.646 383.427 595.189 395.88 603.213 409.294V367.963H643.567Z" fill="white"/>
<path d="M417.912 473.743C404.409 473.898 391.867 470.638 381.004 462.44C369.797 453.947 362.378 443.001 360.096 428.749C357.178 409.978 362.518 394.048 376.393 381.162C385.318 372.902 396.043 368.43 408.119 366.66C425.191 364.161 440.712 367.747 454.556 377.916C460.025 381.74 464.655 386.641 468.158 392.32C471.664 397.999 473.97 404.336 474.934 410.94C476.677 420.882 475.552 431.115 471.691 440.439C468.994 447.047 464.949 453.018 459.815 457.975C454.681 462.932 448.572 466.762 441.875 469.225C434.395 472.128 426.168 473.137 418.283 475L417.912 473.743ZM432.564 420.535C432.671 411.127 425.843 405.614 417.585 404.822C409.824 404.093 402.453 412.447 402.344 420.845C402.36 424.895 403.974 428.772 406.834 431.636C409.694 434.501 413.57 436.118 417.617 436.139C425.92 436.109 433.355 428.826 432.564 420.582V420.535Z" fill="white"/>
<path d="M80.7055 415.487C89.0246 418.887 95.4503 424.276 96.9092 432.891C99.47 448.076 96.6609 461.289 77.9272 467.452C69.5991 470.049 60.9591 471.511 52.2404 471.8C37.3251 472.483 22.3631 471.986 7.41649 471.986H2.54297V367.962C3.76911 367.869 4.99524 367.713 6.22139 367.713C21.4473 367.713 36.7042 367.17 51.8991 367.885C63.3532 368.412 74.699 369.981 85.2376 375.771C98.306 382.944 98.0733 407.91 83.4528 413.795C82.4998 414.296 81.582 414.862 80.7055 415.487ZM44.6352 430.05V445.017C53.9476 445.686 58.6039 442.905 58.4332 437.332C58.2624 431.759 53.3269 429.197 44.5731 430.05H44.6352ZM44.806 409.867C49.4623 410.162 53.808 410.037 55.6705 405.519C56.0803 404.46 56.2576 403.326 56.1907 402.194C56.1237 401.06 55.8141 399.955 55.2825 398.951C52.8457 395.537 48.7793 395.381 44.7595 395.411L44.806 409.867Z" fill="white"/>
<path d="M353.237 412.045C343.645 406.238 333.835 404.995 323.654 405.586C319.758 405.877 316.071 407.456 313.169 410.072C310.266 412.689 308.315 416.195 307.622 420.04C306.86 425.739 313.348 433.315 320.426 434.915C331.074 437.305 341.161 435.348 350.909 430.862C351.529 430.567 352.228 430.411 353.237 430.071C353.237 442.382 353.237 454.399 353.129 466.432C352.986 467.056 352.697 467.637 352.289 468.129C351.878 468.62 351.357 469.007 350.769 469.258C331.74 475.469 312.665 476.322 294.18 467.705C278.411 460.315 267.887 447.801 264.691 430.66C259.554 403.318 274.003 377.872 302.578 369.224C317.943 364.567 332.952 365.358 348.069 369.504C351.297 370.389 353.547 371.94 353.393 376.335C352.973 387.917 353.237 399.562 353.237 412.045Z" fill="white"/>
<path d="M186.993 403.779H158.621V367.977H258.947V403.873H231.01V471.736H186.993V403.779Z" fill="white"/>
<path d="M479.406 269.326C489.075 269.326 498.403 269.217 507.717 269.45C508.486 269.604 509.214 269.917 509.854 270.374C510.493 270.828 511.029 271.413 511.425 272.091C516.564 280.475 521.484 288.999 526.481 297.474C526.792 298.019 527.149 298.546 528.126 300.083V269.636H559.028V350.372C549.716 350.372 540.621 350.497 531.494 350.232C530.284 350.232 528.81 348.401 528.002 347.127C522.197 337.578 516.532 327.953 510.231 317.363V350.092H479.406V269.326Z" fill="white"/>
<path d="M225.048 268.361C242.758 268.608 256.943 275.472 265.402 291.525C268.842 297.982 270.399 305.274 269.9 312.572C269.402 319.871 266.864 326.882 262.578 332.808C248.423 353.335 219.119 356.796 198.865 344.206C193.747 341.029 189.407 336.748 186.159 331.676C182.911 326.604 180.838 320.868 180.095 314.892C179.35 308.913 179.953 302.845 181.859 297.132C183.763 291.418 186.922 286.202 191.105 281.867C195.476 277.33 200.764 273.777 206.618 271.448C212.473 269.119 218.756 268.066 225.048 268.361ZM236.021 310.063C236.074 308.542 235.812 307.029 235.252 305.614C234.693 304.199 233.849 302.916 232.77 301.845C231.692 300.772 230.404 299.933 228.988 299.381C227.57 298.828 226.056 298.576 224.537 298.636C218.498 298.636 212.756 304.381 212.756 310.28C212.756 316.181 218.638 321.972 224.971 321.925C231.302 321.878 236.021 316.927 235.991 310.063H236.021Z" fill="white"/>
<path d="M96.5078 349.533V270.133C109.809 270.133 122.893 270.133 136.039 270.133C144.12 270.239 151.99 272.724 158.669 277.275C168.244 283.594 174.36 292.148 175.741 304.182C177.418 317.953 173.631 329.272 163.604 338.557C156.805 344.874 148.032 348.648 138.771 349.238C124.957 350.201 110.911 349.533 96.5078 349.533ZM130.079 322.829C135.822 323 140.214 321.276 142.915 316.479C144.239 314.447 144.892 312.05 144.784 309.627C144.675 307.205 143.81 304.876 142.31 302.971C140.985 301.035 139.115 299.535 136.938 298.661C134.761 297.789 132.374 297.58 130.079 298.064V322.829Z" fill="white"/>
<path d="M616.315 321.88H609.594V304.07H643.74C643.74 316.973 643.74 329.719 643.647 342.467C643.541 342.972 643.324 343.445 643.013 343.857C642.701 344.266 642.303 344.604 641.846 344.843C629.724 351.052 616.92 352.295 603.541 350.586C593.235 349.268 584.249 345.556 576.877 338.166C570.57 331.57 566.668 323.038 565.804 313.95C564.938 304.862 567.161 295.747 572.111 288.08C575.18 283.304 579.204 279.217 583.929 276.075C588.654 272.933 593.98 270.804 599.568 269.821C613.537 267.057 627.148 267.429 640.201 273.624C640.829 273.923 641.384 274.357 641.827 274.893C642.269 275.429 642.588 276.056 642.762 276.73C642.963 285.052 642.871 293.373 642.871 301.758C636.957 300.204 631.369 298.28 625.627 297.363C619.419 296.354 612.885 295.812 606.847 298.916C603.857 300.375 601.484 302.855 600.158 305.908C598.832 308.961 598.639 312.387 599.614 315.571C600.59 318.752 602.669 321.483 605.477 323.269C608.286 325.055 611.638 325.778 614.934 325.31C615.85 325.187 616.579 323.866 617.401 323.091C617.06 322.671 616.687 322.267 616.315 321.88Z" fill="white"/>
<path d="M0 350.39C1.55208 345.995 2.73165 342.301 4.09747 338.652C12.3752 316.429 20.7098 294.237 29.1015 272.077C29.4114 271.404 29.8774 270.816 30.4604 270.36C31.0434 269.902 31.7269 269.592 32.4538 269.452C42.6355 269.235 52.8327 269.328 63.1385 269.328C73.1028 296.251 83.0205 323.048 93.1246 350.374C81.453 350.374 70.3091 350.374 59.1496 350.281C58.3114 350.281 57.0854 348.976 56.7439 348.03C55.8592 345.529 55.3625 342.907 54.6797 340.266H36.2565C35.703 342.791 34.9981 345.279 34.1456 347.719C33.68 348.822 32.2211 350.25 31.1811 350.266C21.1393 350.467 11.1129 350.39 0 350.39ZM41.6422 319.881H49.6664C48.3783 314.804 47.1831 310.085 45.7707 304.556L41.6422 319.881Z" fill="white"/>
<path d="M483.656 367.855H527.115V471.71H483.656V367.855Z" fill="white"/>
<path d="M309.191 330.903V350.156H275.992V269.514C277.219 269.514 278.599 269.311 279.98 269.343C292.553 269.607 305.124 269.824 317.696 270.212C330.982 270.615 344.609 280.15 346.921 291.373C350.537 308.919 343.957 323.978 323.548 328.746C319.03 329.801 314.375 330.157 309.191 330.903ZM309.455 294.573V306.993C312.683 307.832 315.493 306.916 316.718 304.152C317.54 302.024 317.54 299.666 316.718 297.538C315.57 294.697 312.73 293.842 309.455 294.587V294.573Z" fill="white"/>
<path d="M106.008 471.689V367.867H148.581V471.689H106.008Z" fill="white"/>
<path d="M429.692 297.787H407.775V350.077H374.049V297.926H351.855V269.621H429.692V297.787Z" fill="white"/>
<path d="M470.277 269.637V350.139H437.219V269.637H470.277Z" fill="white"/>
<path d="M598.836 241.973C590.394 241.104 583.114 240.421 575.819 239.629C564.272 238.479 552.719 237.352 541.161 236.244C537.063 235.857 532.951 235.561 528.838 235.328C518.171 234.728 507.507 234.148 496.849 233.589C479.062 232.704 461.261 231.897 443.474 230.966C438.367 230.701 433.261 230.158 427.612 229.692C429.785 227.813 431.849 226.09 433.819 224.259C435.279 222.983 436.613 221.575 437.809 220.05C438.187 219.628 438.456 219.117 438.59 218.565C438.723 218.012 438.717 217.436 438.572 216.886C438.427 216.337 438.149 215.831 437.761 215.417C437.373 215.001 436.888 214.689 436.349 214.508C433.324 213.11 430.065 211.403 426.883 211.403C413.642 211.046 400.387 211.154 387.134 211.263C381.733 211.263 376.269 211.573 370.929 212.148C358.994 213.42 346.998 214.398 335.231 216.464C314.481 220.097 293.854 224.429 273.149 228.497C271.757 228.902 270.288 228.966 268.865 228.684C270.418 227.24 271.969 225.764 273.521 224.336C275.52 222.752 277.417 221.046 279.202 219.228C282.307 215.609 281.437 212.148 277.029 210.332C275.29 209.445 273.389 208.917 271.442 208.778C259.63 209.167 247.804 209.524 236.008 210.425C225.873 211.2 215.737 212.349 205.696 213.965C193.621 215.889 181.623 218.25 169.657 220.812C150.318 224.951 131.005 229.263 111.718 233.745C100.667 236.306 89.7247 239.334 78.7205 242.129C78.3635 242.222 77.929 242.019 76.6562 241.787C128.93 214.724 150.985 169.235 157.861 113.931H175.865C178.348 121.43 180.831 128.96 183.377 136.474C183.532 136.94 184.169 137.266 185.457 138.462C187.459 132.173 189.507 126.429 191.106 120.576C192.705 114.722 192.519 114.567 198.866 114.567C210.941 114.567 223.002 114.567 235.077 114.567C276.688 114.831 318.283 115.25 359.895 115.359C376.968 115.359 394.04 114.909 411.021 114.505C415.102 114.412 419.184 113.775 422.676 113.434C426.944 128.261 430.576 142.654 435.263 156.689C439.951 170.725 446.236 184.325 457.785 194.448C463.945 200.107 471.79 203.592 480.118 204.369C494.925 205.736 506.969 200.115 517.865 190.955C523.794 185.955 529.613 180.831 535.093 176.112C546.826 204.945 570.403 225.127 598.836 241.973Z" fill="white"/>
<path d="M319.725 0C319.15 11.955 318.561 23.8169 317.956 36.1755L339.685 35.1354L340.275 36.3774L298.524 96.5094V54.5893H279.371C279.852 49.9626 315.674 0.776298 319.725 0Z" fill="white"/>
<path d="M256.093 64.5418L270.542 62.6165L247.509 103.372L246.501 103.279C246.035 94.7553 245.57 86.2005 245.088 77.4749L232.672 79.2293C233.835 73.019 251.7 43.2245 254.727 42.293C255.115 49.6834 255.58 56.9807 256.093 64.5418Z" fill="white"/>
<path d="M335.332 77.8692C348.755 63.0122 349.025 63.2612 365.336 46.0859C364.221 53.8646 363.155 61.3476 362.092 68.7527C365.944 69.2661 369.139 69.5928 372.233 70.1685C374.65 70.6196 375.258 72.0198 373.653 73.871C366.992 81.4941 360.283 89.086 353.605 96.6934C351.475 99.1048 349.414 101.578 347.216 103.943C346.425 104.66 345.559 105.301 344.629 105.857L343.481 105.328L348.331 79.2383L335.332 77.8692Z" fill="white"/>
<path d="M704.383 440.335L691.494 470.626H687.228L700.303 440.753H682.406V437.129H704.383V440.335Z" fill="white"/>
<path d="M683.238 411.177C687.164 408.018 690.239 405.432 692.465 403.418C694.691 401.374 696.561 399.253 698.075 397.054C699.621 394.824 700.394 392.64 700.394 390.503C700.394 388.49 699.899 386.91 698.91 385.764C697.952 384.587 696.391 383.999 694.227 383.999C692.125 383.999 690.487 384.665 689.312 385.996C688.168 387.297 687.55 389.047 687.458 391.246H683.377C683.501 387.777 684.552 385.098 686.53 383.209C688.508 381.32 691.059 380.375 694.181 380.375C697.364 380.375 699.883 381.258 701.738 383.023C703.624 384.789 704.566 387.22 704.566 390.317C704.566 392.888 703.794 395.397 702.248 397.843C700.734 400.259 699.003 402.396 697.055 404.255C695.108 406.082 692.62 408.219 689.59 410.666H705.54V414.197H683.238V411.177Z" fill="white"/>
<path d="M682.062 344.282C682.062 338.954 682.928 334.804 684.659 331.831C686.39 328.826 689.419 327.324 693.747 327.324C698.043 327.324 701.057 328.826 702.788 331.831C704.519 334.804 705.384 338.954 705.384 344.282C705.384 349.702 704.519 353.914 702.788 356.918C701.057 359.923 698.043 361.425 693.747 361.425C689.419 361.425 686.39 359.923 684.659 356.918C682.928 353.914 682.062 349.702 682.062 344.282ZM701.211 344.282C701.211 341.587 701.026 339.311 700.655 337.452C700.315 335.563 699.589 334.045 698.476 332.899C697.394 331.753 695.818 331.18 693.747 331.18C691.645 331.18 690.037 331.753 688.925 332.899C687.843 334.045 687.116 335.563 686.745 337.452C686.405 339.311 686.235 341.587 686.235 344.282C686.235 347.069 686.405 349.408 686.745 351.297C687.116 353.186 687.843 354.704 688.925 355.85C690.037 356.996 691.645 357.569 693.747 357.569C695.818 357.569 697.394 356.996 698.476 355.85C699.589 354.704 700.315 353.186 700.655 351.297C701.026 349.408 701.211 347.069 701.211 344.282Z" fill="white"/>
<path d="M683.238 303.841C687.164 300.682 690.239 298.096 692.465 296.083C694.691 294.038 696.561 291.917 698.075 289.718C699.621 287.488 700.394 285.304 700.394 283.167C700.394 281.154 699.899 279.574 698.91 278.428C697.952 277.251 696.391 276.663 694.227 276.663C692.125 276.663 690.487 277.329 689.312 278.661C688.168 279.961 687.55 281.711 687.458 283.91H683.377C683.501 280.441 684.552 277.762 686.53 275.873C688.508 273.984 691.059 273.039 694.181 273.039C697.364 273.039 699.883 273.922 701.738 275.687C703.624 277.453 704.566 279.884 704.566 282.981C704.566 285.552 703.794 288.061 702.248 290.508C700.734 292.923 699.003 295.06 697.055 296.919C695.108 298.746 692.62 300.883 689.59 303.33H705.54V306.861H683.238V303.841Z" fill="white"/>
</svg>
