<svg width="706" height="475" viewBox="0 0 706 475" fill="none" xmlns="http://www.w3.org/2000/svg">
<path d="M643.569 367.963V471.987C630.903 471.987 618.44 471.987 605.977 471.88C604.97 471.88 603.634 470.576 603.013 469.535C595.408 456.882 587.928 444.149 580.399 431.45C580.019 430.969 579.604 430.518 579.158 430.099V471.787H538.912V367.637H562.892C566.927 367.637 570.947 367.777 574.967 367.637C576.084 367.541 577.203 367.799 578.165 368.377C579.126 368.954 579.881 369.82 580.322 370.851C587.648 383.427 595.191 395.88 603.215 409.294V367.963H643.569Z" fill="black"/>
<path d="M417.912 473.743C404.409 473.898 391.867 470.638 381.004 462.44C369.797 453.947 362.378 443.001 360.096 428.749C357.178 409.978 362.518 394.048 376.393 381.162C385.318 372.902 396.043 368.43 408.119 366.66C425.191 364.161 440.712 367.747 454.556 377.916C460.025 381.74 464.655 386.641 468.158 392.32C471.664 397.999 473.97 404.336 474.934 410.94C476.677 420.882 475.552 431.115 471.691 440.439C468.994 447.047 464.949 453.018 459.815 457.975C454.681 462.932 448.572 466.762 441.875 469.225C434.395 472.128 426.168 473.137 418.283 475L417.912 473.743ZM432.564 420.535C432.671 411.127 425.843 405.614 417.585 404.822C409.824 404.093 402.453 412.447 402.344 420.845C402.36 424.895 403.974 428.772 406.834 431.636C409.694 434.501 413.57 436.118 417.617 436.139C425.92 436.109 433.355 428.826 432.564 420.582V420.535Z" fill="black"/>
<path d="M80.7075 415.487C89.0266 418.887 95.4522 424.276 96.9111 432.891C99.472 448.076 96.6628 461.289 77.9292 467.452C69.6011 470.049 60.9611 471.511 52.2424 471.8C37.327 472.483 22.365 471.986 7.41844 471.986H2.54492V367.962C3.77107 367.869 4.9972 367.713 6.22334 367.713C21.4493 367.713 36.7061 367.17 51.901 367.885C63.3552 368.412 74.7009 369.981 85.2395 375.771C98.3079 382.944 98.0752 407.91 83.4547 413.795C82.5018 414.296 81.5839 414.862 80.7075 415.487ZM44.6372 430.05V445.017C53.9496 445.686 58.6059 442.905 58.4351 437.332C58.2644 431.759 53.3289 429.197 44.5751 430.05H44.6372ZM44.8079 409.867C49.4642 410.162 53.8099 410.037 55.6725 405.519C56.0822 404.46 56.2596 403.326 56.1926 402.194C56.1257 401.06 55.816 399.955 55.2844 398.951C52.8477 395.537 48.7812 395.381 44.7614 395.411L44.8079 409.867Z" fill="black"/>
<path d="M353.237 412.045C343.645 406.238 333.836 404.995 323.655 405.586C319.758 405.877 316.071 407.456 313.169 410.072C310.266 412.689 308.316 416.195 307.622 420.04C306.861 425.739 313.348 433.315 320.426 434.915C331.074 437.305 341.162 435.348 350.91 430.862C351.529 430.567 352.228 430.411 353.237 430.071C353.237 442.382 353.237 454.399 353.129 466.432C352.986 467.056 352.698 467.637 352.289 468.129C351.879 468.62 351.357 469.007 350.77 469.258C331.74 475.469 312.666 476.322 294.18 467.705C278.411 460.315 267.888 447.801 264.691 430.66C259.554 403.318 274.003 377.872 302.578 369.224C317.943 364.567 332.952 365.358 348.069 369.504C351.298 370.389 353.547 371.94 353.393 376.335C352.973 387.917 353.237 399.562 353.237 412.045Z" fill="black"/>
<path d="M186.993 403.779H158.622V367.977H258.948V403.873H231.01V471.736H186.993V403.779Z" fill="black"/>
<path d="M479.405 269.326C489.074 269.326 498.402 269.217 507.716 269.45C508.485 269.604 509.213 269.917 509.853 270.374C510.492 270.828 511.028 271.413 511.424 272.091C516.563 280.475 521.483 288.999 526.48 297.474C526.79 298.019 527.148 298.546 528.124 300.083V269.636H559.026V350.372C549.714 350.372 540.62 350.497 531.493 350.232C530.283 350.232 528.808 348.401 528.001 347.127C522.195 337.578 516.53 327.953 510.23 317.363V350.092H479.405V269.326Z" fill="black"/>
<path d="M225.051 268.361C242.76 268.608 256.945 275.472 265.404 291.525C268.844 297.982 270.402 305.274 269.903 312.572C269.404 319.871 266.866 326.882 262.58 332.808C248.425 353.335 219.122 356.796 198.867 344.206C193.75 341.029 189.409 336.748 186.161 331.676C182.914 326.604 180.841 320.868 180.097 314.892C179.352 308.913 179.955 302.845 181.861 297.132C183.765 291.418 186.924 286.202 191.107 281.867C195.478 277.33 200.767 273.777 206.62 271.448C212.475 269.119 218.758 268.066 225.051 268.361ZM236.023 310.063C236.077 308.542 235.814 307.029 235.254 305.614C234.696 304.199 233.851 302.916 232.772 301.845C231.694 300.772 230.407 299.933 228.99 299.381C227.573 298.828 226.058 298.576 224.539 298.636C218.5 298.636 212.758 304.381 212.758 310.28C212.758 316.181 218.64 321.972 224.973 321.925C231.305 321.878 236.023 316.927 235.993 310.063H236.023Z" fill="black"/>
<path d="M96.5076 349.533V270.133C109.809 270.133 122.893 270.133 136.039 270.133C144.12 270.239 151.99 272.724 158.668 277.275C168.244 283.594 174.36 292.148 175.741 304.182C177.418 317.953 173.631 329.272 163.604 338.557C156.805 344.874 148.032 348.648 138.771 349.238C124.957 350.201 110.911 349.533 96.5076 349.533ZM130.079 322.829C135.822 323 140.214 321.276 142.915 316.479C144.238 314.447 144.892 312.05 144.783 309.627C144.675 307.205 143.809 304.876 142.309 302.971C140.984 301.035 139.115 299.535 136.938 298.661C134.761 297.789 132.374 297.58 130.079 298.064V322.829Z" fill="black"/>
<path d="M616.314 321.88H609.593V304.07H643.74C643.74 316.973 643.74 329.719 643.646 342.467C643.54 342.972 643.323 343.445 643.012 343.857C642.7 344.266 642.303 344.604 641.845 344.843C629.724 351.052 616.919 352.295 603.54 350.586C593.234 349.268 584.249 345.556 576.876 338.166C570.569 331.57 566.668 323.038 565.803 313.95C564.938 304.862 567.16 295.747 572.111 288.08C575.18 283.304 579.203 279.217 583.928 276.075C588.654 272.933 593.979 270.804 599.567 269.821C613.536 267.057 627.147 267.429 640.201 273.624C640.828 273.923 641.384 274.357 641.826 274.893C642.269 275.429 642.587 276.056 642.761 276.73C642.962 285.052 642.871 293.373 642.871 301.758C636.956 300.204 631.368 298.28 625.626 297.363C619.419 296.354 612.885 295.812 606.846 298.916C603.856 300.375 601.484 302.855 600.157 305.908C598.831 308.961 598.638 312.387 599.613 315.571C600.589 318.752 602.668 321.483 605.476 323.269C608.285 325.055 611.637 325.778 614.933 325.31C615.849 325.187 616.578 323.866 617.4 323.091C617.059 322.671 616.686 322.267 616.314 321.88Z" fill="black"/>
<path d="M0 350.39C1.55208 345.995 2.73165 342.301 4.09747 338.652C12.3752 316.429 20.7098 294.237 29.1015 272.077C29.4114 271.404 29.8774 270.816 30.4604 270.36C31.0434 269.902 31.7269 269.592 32.4538 269.452C42.6355 269.235 52.8327 269.328 63.1385 269.328C73.1028 296.251 83.0205 323.048 93.1246 350.374C81.453 350.374 70.3091 350.374 59.1496 350.281C58.3114 350.281 57.0854 348.976 56.7439 348.03C55.8592 345.53 55.3625 342.907 54.6797 340.266H36.2565C35.703 342.791 34.9981 345.279 34.1456 347.719C33.68 348.822 32.2211 350.25 31.1811 350.266C21.1393 350.467 11.1129 350.39 0 350.39ZM41.6422 319.881H49.6664C48.3783 314.804 47.1831 310.085 45.7707 304.556L41.6422 319.881Z" fill="black"/>
<path d="M483.657 367.855H527.115V471.71H483.657V367.855Z" fill="black"/>
<path d="M309.189 330.903V350.156H275.991V269.514C277.217 269.514 278.598 269.311 279.979 269.343C292.552 269.607 305.123 269.824 317.695 270.212C330.981 270.615 344.607 280.15 346.92 291.373C350.536 308.919 343.955 323.978 323.547 328.746C319.029 329.801 314.373 330.157 309.189 330.903ZM309.453 294.573V306.993C312.682 307.832 315.492 306.916 316.717 304.152C317.539 302.024 317.539 299.666 316.717 297.538C315.569 294.697 312.728 293.842 309.453 294.587V294.573Z" fill="black"/>
<path d="M106.007 471.689V367.867H148.581V471.689H106.007Z" fill="black"/>
<path d="M429.692 297.787H407.776V350.077H374.049V297.926H351.856V269.621H429.692V297.787Z" fill="black"/>
<path d="M470.278 269.637V350.139H437.219V269.637H470.278Z" fill="black"/>
<path d="M598.838 241.973C590.395 241.104 583.116 240.421 575.821 239.63C564.273 238.479 552.721 237.352 541.163 236.244C537.065 235.857 532.953 235.561 528.839 235.328C518.172 234.728 507.509 234.148 496.851 233.589C479.064 232.704 461.263 231.897 443.476 230.966C438.369 230.701 433.263 230.158 427.614 229.692C429.786 227.813 431.851 226.09 433.821 224.259C435.281 222.983 436.615 221.575 437.811 220.05C438.189 219.628 438.458 219.117 438.591 218.565C438.725 218.012 438.718 217.436 438.574 216.886C438.429 216.337 438.15 215.831 437.762 215.417C437.375 215.001 436.89 214.689 436.351 214.508C433.325 213.11 430.066 211.403 426.885 211.403C413.644 211.046 400.389 211.154 387.136 211.263C381.735 211.263 376.271 211.573 370.931 212.148C358.996 213.42 346.999 214.398 335.233 216.464C314.483 220.097 293.856 224.429 273.151 228.497C271.759 228.902 270.289 228.966 268.867 228.684C270.42 227.24 271.971 225.764 273.523 224.336C275.521 222.752 277.419 221.046 279.204 219.228C282.308 215.609 281.439 212.148 277.031 210.332C275.291 209.445 273.391 208.917 271.443 208.778C259.632 209.167 247.806 209.524 236.009 210.425C225.875 211.2 215.739 212.349 205.698 213.965C193.623 215.889 181.625 218.25 169.659 220.812C150.319 224.951 131.006 229.263 111.719 233.745C100.669 236.306 89.7264 239.334 78.7222 242.129C78.3652 242.222 77.9307 242.019 76.658 241.787C128.932 214.724 150.987 169.235 157.862 113.931H175.866C178.35 121.43 180.833 128.96 183.379 136.474C183.534 136.94 184.171 137.266 185.458 138.462C187.46 132.173 189.509 126.429 191.107 120.576C192.707 114.722 192.52 114.567 198.868 114.567C210.943 114.567 223.004 114.567 235.079 114.567C276.69 114.831 318.285 115.25 359.897 115.359C376.969 115.359 394.042 114.909 411.022 114.505C415.104 114.412 419.185 113.775 422.678 113.434C426.946 128.261 430.578 142.654 435.265 156.689C439.953 170.725 446.237 184.325 457.786 194.448C463.947 200.107 471.791 203.592 480.12 204.369C494.926 205.736 506.971 200.115 517.867 190.955C523.796 185.955 529.615 180.831 535.095 176.112C546.828 204.945 570.405 225.127 598.838 241.973Z" fill="black"/>
<path d="M319.728 0C319.154 11.955 318.565 23.8169 317.96 36.1755L339.688 35.1354L340.279 36.3774L298.528 96.5094V54.5893H279.375C279.856 49.9626 315.678 0.776298 319.728 0Z" fill="black"/>
<path d="M256.095 64.5418L270.544 62.6165L247.51 103.372L246.503 103.279C246.036 94.7553 245.571 86.2005 245.09 77.4749L232.673 79.2293C233.837 73.019 251.701 43.2245 254.728 42.293C255.116 49.6834 255.581 56.9806 256.095 64.5418Z" fill="black"/>
<path d="M335.335 77.8692C348.758 63.0122 349.028 63.2612 365.339 46.0859C364.224 53.8646 363.158 61.3476 362.094 68.7527C365.947 69.2661 369.142 69.5928 372.236 70.1685C374.653 70.6196 375.261 72.0198 373.656 73.871C366.995 81.4941 360.286 89.086 353.608 96.6934C351.478 99.1048 349.417 101.578 347.219 103.943C346.428 104.66 345.562 105.301 344.632 105.857L343.484 105.328L348.333 79.2383L335.335 77.8692Z" fill="black"/>
<path d="M704.383 440.335L691.493 470.626H687.228L700.303 440.753H682.406V437.129H704.383V440.335Z" fill="black"/>
<path d="M683.239 411.177C687.165 408.018 690.24 405.432 692.466 403.418C694.691 401.374 696.561 399.253 698.076 397.054C699.621 394.824 700.394 392.64 700.394 390.503C700.394 388.49 699.9 386.91 698.911 385.764C697.952 384.587 696.391 383.999 694.228 383.999C692.126 383.999 690.487 384.665 689.313 385.996C688.169 387.297 687.551 389.047 687.458 391.246H683.378C683.502 387.777 684.553 385.098 686.531 383.209C688.509 381.32 691.059 380.375 694.181 380.375C697.365 380.375 699.884 381.258 701.739 383.023C703.624 384.789 704.567 387.22 704.567 390.317C704.567 392.888 703.794 395.397 702.249 397.843C700.734 400.259 699.003 402.396 697.056 404.255C695.109 406.082 692.62 408.219 689.591 410.666H705.541V414.197H683.239V411.177Z" fill="black"/>
<path d="M682.063 344.282C682.063 338.954 682.929 334.804 684.66 331.831C686.391 328.826 689.42 327.324 693.748 327.324C698.044 327.324 701.058 328.826 702.789 331.831C704.52 334.804 705.385 338.954 705.385 344.282C705.385 349.702 704.52 353.914 702.789 356.918C701.058 359.923 698.044 361.425 693.748 361.425C689.42 361.425 686.391 359.923 684.66 356.918C682.929 353.914 682.063 349.702 682.063 344.282ZM701.212 344.282C701.212 341.587 701.027 339.311 700.656 337.452C700.316 335.563 699.59 334.045 698.477 332.899C697.395 331.753 695.819 331.18 693.748 331.18C691.646 331.18 690.038 331.753 688.926 332.899C687.844 334.045 687.117 335.563 686.746 337.452C686.406 339.311 686.236 341.587 686.236 344.282C686.236 347.069 686.406 349.408 686.746 351.297C687.117 353.186 687.844 354.704 688.926 355.85C690.038 356.996 691.646 357.569 693.748 357.569C695.819 357.569 697.395 356.996 698.477 355.85C699.59 354.704 700.316 353.186 700.656 351.297C701.027 349.408 701.212 347.069 701.212 344.282Z" fill="black"/>
<path d="M683.239 303.841C687.164 300.682 690.24 298.096 692.465 296.083C694.691 294.038 696.561 291.917 698.075 289.718C699.621 287.488 700.394 285.304 700.394 283.167C700.394 281.154 699.899 279.574 698.91 278.428C697.952 277.251 696.391 276.663 694.227 276.663C692.125 276.663 690.487 277.329 689.312 278.661C688.169 279.961 687.551 281.711 687.458 283.91H683.378C683.501 280.441 684.552 277.762 686.53 275.873C688.509 273.984 691.059 273.039 694.181 273.039C697.365 273.039 699.884 273.922 701.738 275.687C703.624 277.453 704.567 279.884 704.567 282.981C704.567 285.552 703.794 288.061 702.248 290.508C700.734 292.923 699.003 295.06 697.055 296.919C695.108 298.746 692.62 300.883 689.591 303.33H705.54V306.861H683.239V303.841Z" fill="black"/>
</svg>
