<svg width="16" height="13" viewBox="0 0 16 13" fill="none" xmlns="http://www.w3.org/2000/svg">
<rect x="6.23584" y="4.99219" width="0.492308" height="2.77318" rx="0.114818" fill="#E1982A"/>
<rect x="6.48193" y="5.07031" width="3.11795" height="2.61471" rx="0.114818" fill="#E1982A"/>
<rect x="6.89233" y="4.99219" width="0.410257" height="2.77318" rx="0.114818" fill="#E1982A"/>
<rect x="7.46655" y="4.99219" width="0.410257" height="2.77318" rx="0.114818" fill="#E1982A"/>
<rect x="8.12305" y="4.99219" width="0.410257" height="2.77318" rx="0.114818" fill="#E1982A"/>
<rect x="8.69751" y="4.99219" width="0.410257" height="2.77318" rx="0.114818" fill="#E1982A"/>
<rect x="9.27173" y="4.99219" width="0.410257" height="2.77318" rx="0.114818" fill="#E1982A"/>
<rect x="2.95386" y="2.37891" width="0.492308" height="2.77318" rx="0.114818" fill="#E1982A"/>
<rect x="3.19995" y="2.45703" width="3.11795" height="2.61471" rx="0.114818" fill="#E1982A"/>
<rect x="3.61035" y="2.37891" width="0.410257" height="2.77318" rx="0.114818" fill="#E1982A"/>
<rect x="4.18457" y="2.37891" width="0.410257" height="2.77318" rx="0.114818" fill="#E1982A"/>
<rect x="4.84106" y="2.37891" width="0.410257" height="2.77318" rx="0.114818" fill="#E1982A"/>
<rect x="5.41528" y="2.37891" width="0.410257" height="2.77318" rx="0.114818" fill="#E1982A"/>
<rect x="5.98975" y="2.37891" width="0.410257" height="2.77318" rx="0.114818" fill="#E1982A"/>
<rect x="2.95386" y="7.36719" width="0.492308" height="2.77318" rx="0.114818" fill="#E1982A"/>
<rect x="3.19995" y="7.44922" width="3.11795" height="2.61471" rx="0.114818" fill="#E1982A"/>
<rect x="3.61035" y="7.36719" width="0.410257" height="2.77318" rx="0.114818" fill="#E1982A"/>
<rect x="4.18457" y="7.36719" width="0.410257" height="2.77318" rx="0.114818" fill="#E1982A"/>
<rect x="4.84106" y="7.36719" width="0.410257" height="2.77318" rx="0.114818" fill="#E1982A"/>
<rect x="5.41528" y="7.36719" width="0.410257" height="2.77318" rx="0.114818" fill="#E1982A"/>
<rect x="5.98975" y="7.36719" width="0.410257" height="2.77318" rx="0.114818" fill="#E1982A"/>
<rect y="9.82422" width="0.457143" height="2.57509" rx="0.114818" fill="#E1982A"/>
<rect x="0.228516" y="9.89844" width="2.89524" height="2.42795" rx="0.114818" fill="#E1982A"/>
<rect x="0.609619" y="9.82422" width="0.380953" height="2.57509" rx="0.114818" fill="#E1982A"/>
<rect x="1.14282" y="9.82422" width="0.380953" height="2.57509" rx="0.114818" fill="#E1982A"/>
<rect x="1.75244" y="9.82422" width="0.380953" height="2.57509" rx="0.114818" fill="#E1982A"/>
<rect x="2.28564" y="9.82422" width="0.380953" height="2.57509" rx="0.114818" fill="#E1982A"/>
<rect x="2.81909" y="9.82422" width="0.380953" height="2.57509" rx="0.114818" fill="#E1982A"/>
<rect width="0.457143" height="2.57509" rx="0.114818" fill="#E1982A"/>
<rect x="0.228516" y="0.0742188" width="2.89524" height="2.42795" rx="0.114818" fill="#E1982A"/>
<rect x="0.609619" width="0.380953" height="2.57509" rx="0.114818" fill="#E1982A"/>
<rect x="1.14282" width="0.380953" height="2.57509" rx="0.114818" fill="#E1982A"/>
<rect x="1.75244" width="0.380953" height="2.57509" rx="0.114818" fill="#E1982A"/>
<rect x="2.28564" width="0.380953" height="2.57509" rx="0.114818" fill="#E1982A"/>
<rect x="2.81909" width="0.380953" height="2.57509" rx="0.114818" fill="#E1982A"/>
<rect x="12.8" y="9.82422" width="0.457143" height="2.57509" rx="0.114818" fill="#E1982A"/>
<rect x="13.0286" y="9.89844" width="2.89524" height="2.42795" rx="0.114818" fill="#E1982A"/>
<rect x="13.4094" y="9.82422" width="0.380953" height="2.57509" rx="0.114818" fill="#E1982A"/>
<rect x="13.9429" y="9.82422" width="0.380953" height="2.57509" rx="0.114818" fill="#E1982A"/>
<rect x="14.5522" y="9.82422" width="0.380953" height="2.57509" rx="0.114818" fill="#E1982A"/>
<rect x="15.0857" y="9.82422" width="0.380953" height="2.57509" rx="0.114818" fill="#E1982A"/>
<rect x="15.6189" y="9.82422" width="0.380953" height="2.57509" rx="0.114818" fill="#E1982A"/>
<rect x="12.8" width="0.457143" height="2.57509" rx="0.114818" fill="#E1982A"/>
<rect x="13.0286" y="0.0742188" width="2.89524" height="2.42795" rx="0.114818" fill="#E1982A"/>
<rect x="13.4094" width="0.380953" height="2.57509" rx="0.114818" fill="#E1982A"/>
<rect x="13.9429" width="0.380953" height="2.57509" rx="0.114818" fill="#E1982A"/>
<rect x="14.5522" width="0.380953" height="2.57509" rx="0.114818" fill="#E1982A"/>
<rect x="15.0857" width="0.380953" height="2.57509" rx="0.114818" fill="#E1982A"/>
<rect x="15.6189" width="0.380953" height="2.57509" rx="0.114818" fill="#E1982A"/>
<rect x="9.51782" y="2.37891" width="0.492308" height="2.77318" rx="0.114818" fill="#E1982A"/>
<rect x="9.76416" y="2.45703" width="3.11795" height="2.61471" rx="0.114818" fill="#E1982A"/>
<rect x="10.1743" y="2.37891" width="0.410257" height="2.77318" rx="0.114818" fill="#E1982A"/>
<rect x="10.7488" y="2.37891" width="0.410257" height="2.77318" rx="0.114818" fill="#E1982A"/>
<rect x="11.405" y="2.37891" width="0.410257" height="2.77318" rx="0.114818" fill="#E1982A"/>
<rect x="11.9795" y="2.37891" width="0.410257" height="2.77318" rx="0.114818" fill="#E1982A"/>
<rect x="12.5537" y="2.37891" width="0.410257" height="2.77318" rx="0.114818" fill="#E1982A"/>
<rect x="9.51782" y="7.36719" width="0.492308" height="2.77318" rx="0.114818" fill="#E1982A"/>
<rect x="9.76416" y="7.44922" width="3.11795" height="2.61471" rx="0.114818" fill="#E1982A"/>
<rect x="10.1743" y="7.36719" width="0.410257" height="2.77318" rx="0.114818" fill="#E1982A"/>
<rect x="10.7488" y="7.36719" width="0.410257" height="2.77318" rx="0.114818" fill="#E1982A"/>
<rect x="11.405" y="7.36719" width="0.410257" height="2.77318" rx="0.114818" fill="#E1982A"/>
<rect x="11.9795" y="7.36719" width="0.410257" height="2.77318" rx="0.114818" fill="#E1982A"/>
<rect x="12.5537" y="7.36719" width="0.410257" height="2.77318" rx="0.114818" fill="#E1982A"/>
</svg>
